<?xml version="1.0" encoding="UTF-8" standalone="no"?>
<svg
   xmlns:dc="http://purl.org/dc/elements/1.1/"
   xmlns:cc="http://creativecommons.org/ns#"
   xmlns:rdf="http://www.w3.org/1999/02/22-rdf-syntax-ns#"
   xmlns:svg="http://www.w3.org/2000/svg"
   xmlns="http://www.w3.org/2000/svg"
   xmlns:sodipodi="http://sodipodi.sourceforge.net/DTD/sodipodi-0.dtd"
   xmlns:inkscape="http://www.inkscape.org/namespaces/inkscape"
   version="1.1"
   width="841.88977"
   height="595.27557"
   id="svg12"
   viewBox="0 0 841.88977 595.27557"
   sodipodi:docname="stark-got-full.cdr.svg"
   inkscape:version="0.92.5 (2060ec1f9f, 2020-04-08)">
  <metadata
     id="metadata18">
    <rdf:RDF>
      <cc:Work
         rdf:about="">
        <dc:format>image/svg+xml</dc:format>
        <dc:type
           rdf:resource="http://purl.org/dc/dcmitype/StillImage" />
        <dc:title></dc:title>
      </cc:Work>
    </rdf:RDF>
  </metadata>
  <defs
     id="defs16" />
  <sodipodi:namedview
     pagecolor="#ffffff"
     bordercolor="#666666"
     borderopacity="1"
     objecttolerance="10"
     gridtolerance="10"
     guidetolerance="10"
     inkscape:pageopacity="0"
     inkscape:pageshadow="2"
     inkscape:window-width="1600"
     inkscape:window-height="873"
     id="namedview14"
     showgrid="false"
     inkscape:zoom="2.2426884"
     inkscape:cx="448.06933"
     inkscape:cy="404.11605"
     inkscape:window-x="0"
     inkscape:window-y="27"
     inkscape:window-maximized="0"
     inkscape:current-layer="svg12" />
  <path
     d="m 125.6436,209.2721 10.833,20.2438 17.4466,17.8597 22.5492,11.3826 25.9774,-1.3575 23.4354,-14.0899 c 0,0 -10.3051,12.4912 -12.4912,24.3578 -2.1861,11.8666 -7.1825,21.5472 -7.1825,21.5472 0,0 12.8035,2.186 25.607,1.2491 12.8035,-0.9368 16.2384,-1.5614 16.2384,-1.5614 0,0 4e-4,14.6769 -2.498,22.484 -2.4984,7.8071 -4.6844,11.242 -4.6844,11.242 0,0 16.2387,-0.6246 27.7931,-5.3087 11.5543,-4.6841 18.1118,-8.119 18.1118,-8.119 l -9.3682,27.4804 12.1789,-0.6246 -22.484,31.54 3.7472,7.8071 17.1753,-4.6841 c 0,0 1.2492,7.4944 -5.3087,14.6769 -6.5579,7.1825 -7.4948,14.3654 -11.8666,21.5475 -4.3718,7.1821 -11.242,14.9892 -11.242,14.9892 l 18.7368,7.1825 24.9824,-10.9297 c 0,0 -5.621,7.1825 -7.8071,17.1753 -2.1861,9.9929 -12.8035,33.1015 -12.8035,33.1015 l 20.2983,3.4353 26.8559,-4.6845 -1.5615,37.7859 c 0,0 10.3054,-13.7407 14.0527,-15.3019 3.7472,-1.5611 10.9293,-6.8698 14.3646,-6.5575 3.4353,0.3123 14.0527,-10.3055 14.0527,-10.3055 l -3.4349,14.365 3.4349,48.7153 10.3051,23.4209 c 0,0 -0.9369,-15.9257 4.9964,-30.9153 5.9333,-14.9896 17.8,-42.7824 17.8,-42.7824 l 12.4912,31.8526 -1.8738,-33.7264 c 0,0 6.2456,-13.7404 12.8035,-33.726 6.5579,-19.9857 11.5543,-34.663 11.5543,-34.663 l 14.0527,26.8562 -0.7177,-26.1112 1.5615,-26.5439 18.4245,-37.4733 21.8594,37.4733 -4.9964,-37.161 9.6805,-20.9225 v -7.4948 l 8.1194,-9.0559 5.3087,10.3051 12.179,21.8594 -4.3722,-37.4736 7.1825,-25.2944 17.1753,-22.484 27.4805,-5.621 25.607,8.4313 9.3682,12.4912 -0.3123,11.242 8.4317,1.8738 16.2384,-11.5543 -2.4984,8.1191 -8.4313,7.4948 12.1786,0.6246 21.2352,-28.1051 4.9964,-24.0455 9.9928,-12.4912 -1.5615,-18.1119 -8.119,11.242 0.6242,2.6542 -11.7105,7.026 -5.7771,-14.3646 -10.9297,13.2719 -4.2157,-17.9561 -20.4545,10.9298 -5.621,-18.893 -16.863,2.8107 -4.528,-11.5543 -11.0858,11.7104 -8.7437,-3.1229 -6.714,-8.4314 1.093,-17.4876 17.1761,-23.2641 -2.9669,23.7332 4.0596,6.558 6.8702,-2.0296 13.7404,-13.4281 7.1825,16.863 h 7.1821 l 12.3351,-12.9597 11.8666,15.3019 8.2755,-3.123 8.2752,-10.7735 8.5878,18.1122 7.8071,-1.5615 12.647,-14.6769 2.3423,10.3051 -6.5579,15.6138 5.7771,1.8738 c 0,0 11.3982,-10.3055 12.9597,-12.9596 1.5615,-2.6542 7.9632,-14.5208 7.9632,-14.5208 0,0 0.9366,-5.1526 2.4981,-7.0264 1.5615,-1.8738 16.8633,-12.9586 20.2983,-22.3268 3.4349,-9.3682 14.365,-33.4134 17.1753,-37.161 2.8103,-3.7476 3.7472,-10.9297 3.7472,-10.9297 0,0 -8.7436,-2.8107 -21.5471,-2.4984 -12.8035,0.3123 -8.4314,3.123 -16.2385,0.3123 -7.8071,-2.8107 -35.5998,-8.119 -42.7823,-9.3682 -7.1825,-1.2492 -28.7296,-2.8107 -28.7296,-2.8107 l -17.1754,-17.1753 -56.2101,-13.1158 -24.3578,-1.5612 -15.3015,-6.5579 -55.2736,20.298 -19.3614,1.5615 -18.1118,-8.1194 -19.986,-14.9893 -10.3052,-12.8035 0.9369,13.4281 9.056,19.0491 8.4317,10.6175 L 377.56,75.115 c 0,0 -20.6102,-6.2456 -28.105,-11.242 -7.4948,-4.9964 -12.8035,-10.6175 -12.8035,-10.6175 0,0 8.1194,18.1123 12.4912,24.6702 4.3718,6.5579 13.4281,12.8035 13.4281,12.8035 l 10.6174,4.9964 -1.5615,4.0595 c 0,0 -34.038,6.2456 -42.782,5.3087 -8.7439,-0.9369 -33.4141,-14.6769 -33.4141,-14.6769 l 3.123,12.4908 21.8595,15.3019 14.9892,3.4349 c 0,0 -10.9326,13.1166 -49.655,14.3654 -38.7225,1.2488 -44.0312,-3.4353 -44.0312,-3.4353 0,0 15.9258,12.4912 19.6734,14.0527 3.7475,1.5615 41.2208,9.6805 41.2208,9.6805 l -60.2696,14.365 -26.5439,-0.9369 6.5579,10.3052 20.6106,8.1194 26.2312,4.0595 -46.8418,12.4912 -38.7225,0.6246 -22.1717,-12.1789 -7.4948,0.9369 9.0559,15.9261 30.2911,15.3015 32.165,3.123 -17.8,7.1825 -30.5988,-2.0158 -28.7296,-7.3386 z m 439.4478,-105.9724 25.4509,-5.3087 14.7452,0.6281 4.3039,4.6806 2.0296,14.2088 -8.2752,-4.0595 -22.7964,-3.5914 z"
     style="fill:#1b1918;fill-rule:evenodd;stroke:#1b1918;stroke-width:1.41729999;stroke-linecap:butt;stroke-linejoin:miter;stroke-dasharray:none"
     id="path2"
     inkscape:connector-curvature="0" />
</svg>
